{"title":"Harry Potter And The Deathly Hallows Part 1 TS XViD-IMAGiNE.avi","uid":5991437,"size":1474641188,"categoryP":"video","categoryS":"movies","magnet":"?xt=urn:btih:45dda51c180134ff39e4a9d33450b03767f66094&amp;dn=Harry+Potter+And+The+Deathly+Hallows+Part+1+TS+XViD-IMAGiNE.avi&amp;tr=udp%3A%2F%2Ftracker.openbittorrent.com%3A80&amp;tr=udp%3A%2F%2Fopen.demonii.com%3A1337&amp;tr=udp%3A%2F%2Ftracker.coppersurfer.tk%3A6969&amp;tr=udp%3A%2F%2Fexodus.desync.com%3A6969","seeders":1,"leechers":0,"uploader":"AiTB","files":2,"time":1290903718,"description":"info, sample\n &lt;a href=&quot;\nhttp://www.btarena.org/movies/telesync/harry-potter-and-the-deathly-hallows-part-1-ts-xvid-imagine&quot; rel=&quot;nofollow&quot; target=&quot;_NEW&quot;&gt;\nhttp://www.btarena.org/movies/telesync/harry-potter-and-the-deathly-hallows-part-1-ts-xvid-imagine&lt;/a&gt;\n\n\n                                \nIMDB Rating.......:8.2/10                            \nVideo Codec.......: XVID                                         \nRelease Date......:27/11/10\nAudio Codec.......:MP3                                           \nTheatre Date......:19/11/10\nAudio Bitrate.....:128                                              Runtime.......:2hr 09mins\nSubtitles.........:NIL                                                 Language..........:ENGLISH\n\n\nDETAILS:\n\nVideo\nID                               : 0\nFormat                           : MPEG-4 Visual\nFormat profile                   : Advanced Simple@L5\nFormat settings, BVOP            : Yes\nFormat settings, QPel            : No\nFormat settings, GMC             : No warppoints\nFormat settings, Matrix          : Default (MPEG)\nMuxing mode                      : Packed bitstream\nCodec ID                         : XVID\nCodec ID/Hint                    : XviD\nDuration                         : 2h 9mn\nBit rate                         : 1 384 Kbps\nWidth                            : 720 pixels\nHeight                           : 304 pixels\nDisplay aspect ratio             : 2.35\nFrame rate                       : 25.000 fps\nResolution                       : 24 bits\nColorimetry                      : 4:2:0\nScan type                        : Progressive\nBits/(Pixel*Frame)               : 0.253\nStream size                      : 1.25 GiB (91%)\nWriting library                  : XviD 1.2.1 (UTC 2008-12-04)\n\nAudio\nID                               : 1\nFormat                           : MPEG Audio\nFormat version                   : Version 1\nFormat profile                   : Layer 3\nCodec ID                         : 55\nCodec ID/Hint                    : MP3\nDuration                         : 2h 9mn\nBit rate mode                    : Constant\nBit rate                         : 128 Kbps\nChannel(s)                       : 2 channels\nSampling rate                    : 44.1 KHz\nResolution                       : 16 bits\nStream size                      : 118 MiB (8%)\nAlignment                        : Split accross interleaves\nInterleave, duration             : 40 ms (1.00 video frame)\nInterleave, preload duration     : 500 ms","torrent":{"xt":"urn:btih:45dda51c180134ff39e4a9d33450b03767f66094","amp;dn":"Harry+Potter+And+The+Deathly+Hallows+Part+1+TS+XViD-IMAGiNE.avi","amp;tr":["udp%3A%2F%2Ftracker.openbittorrent.com%3A80","udp%3A%2F%2Fopen.demonii.com%3A1337","udp%3A%2F%2Ftracker.coppersurfer.tk%3A6969","udp%3A%2F%2Fexodus.desync.com%3A6969"],"infoHash":"45dda51c180134ff39e4a9d33450b03767f66094","infoHashBuffer":{"type":"Buffer","data":[69,221,165,28,24,1,52,255,57,228,169,211,52,80,176,55,103,246,96,148]},"announce":[],"urlList":[]}}